<svg version="1.1" xmlns="http://www.w3.org/2000/svg" xmlns:xlink="http://www.w3.org/1999/xlink" width="800" height="800"><defs/><g transform="scale(2,2)"><g id="background-03375ec5"><rect fill="white" stroke="none" x="0" y="0" width="400" height="400" class="dcg-svg-background"/></g><g id="graphpaper-03375ec5"><g id="grid-03375ec5"><g><path fill="none" stroke="rgb(0,0,0)" class="dcg-svg-minor-gridline" paint-order="fill stroke markers" d=" M 40.5 0 L 40.5 400" stroke-opacity="0.2" stroke-miterlimit="10" stroke-dasharray=""/><path fill="none" stroke="rgb(0,0,0)" class="dcg-svg-minor-gridline" paint-order="fill stroke markers" d=" M 80.5 0 L 80.5 400" stroke-opacity="0.2" stroke-miterlimit="10" stroke-dasharray=""/><path fill="none" stroke="rgb(0,0,0)" class="dcg-svg-minor-gridline" paint-order="fill stroke markers" d=" M 120.5 0 L 120.5 400" stroke-opacity="0.2" stroke-miterlimit="10" stroke-dasharray=""/><path fill="none" stroke="rgb(0,0,0)" class="dcg-svg-minor-gridline" paint-order="fill stroke markers" d=" M 160.5 0 L 160.5 400" stroke-opacity="0.2" stroke-miterlimit="10" stroke-dasharray=""/><path fill="none" stroke="rgb(0,0,0)" class="dcg-svg-minor-gridline" paint-order="fill stroke markers" d=" M 200.5 0 L 200.5 400" stroke-opacity="0.2" stroke-miterlimit="10" stroke-dasharray=""/><path fill="none" stroke="rgb(0,0,0)" class="dcg-svg-minor-gridline" paint-order="fill stroke markers" d=" M 240.5 0 L 240.5 400" stroke-opacity="0.2" stroke-miterlimit="10" stroke-dasharray=""/><path fill="none" stroke="rgb(0,0,0)" class="dcg-svg-minor-gridline" paint-order="fill stroke markers" d=" M 280.5 0 L 280.5 400" stroke-opacity="0.2" stroke-miterlimit="10" stroke-dasharray=""/><path fill="none" stroke="rgb(0,0,0)" class="dcg-svg-minor-gridline" paint-order="fill stroke markers" d=" M 320.5 0 L 320.5 400" stroke-opacity="0.2" stroke-miterlimit="10" stroke-dasharray=""/><path fill="none" stroke="rgb(0,0,0)" class="dcg-svg-minor-gridline" paint-order="fill stroke markers" d=" M 360.5 0 L 360.5 400" stroke-opacity="0.2" stroke-miterlimit="10" stroke-dasharray=""/><path fill="none" stroke="rgb(0,0,0)" class="dcg-svg-minor-gridline" paint-order="fill stroke markers" d=" M 0 360.5 L 400 360.5" stroke-opacity="0.2" stroke-miterlimit="10" stroke-dasharray=""/><path fill="none" stroke="rgb(0,0,0)" class="dcg-svg-minor-gridline" paint-order="fill stroke markers" d=" M 0 320.5 L 400 320.5" stroke-opacity="0.2" stroke-miterlimit="10" stroke-dasharray=""/><path fill="none" stroke="rgb(0,0,0)" class="dcg-svg-minor-gridline" paint-order="fill stroke markers" d=" M 0 280.5 L 400 280.5" stroke-opacity="0.2" stroke-miterlimit="10" stroke-dasharray=""/><path fill="none" stroke="rgb(0,0,0)" class="dcg-svg-minor-gridline" paint-order="fill stroke markers" d=" M 0 240.5 L 400 240.5" stroke-opacity="0.2" stroke-miterlimit="10" stroke-dasharray=""/><path fill="none" stroke="rgb(0,0,0)" class="dcg-svg-minor-gridline" paint-order="fill stroke markers" d=" M 0 200.5 L 400 200.5" stroke-opacity="0.2" stroke-miterlimit="10" stroke-dasharray=""/><path fill="none" stroke="rgb(0,0,0)" class="dcg-svg-minor-gridline" paint-order="fill stroke markers" d=" M 0 160.5 L 400 160.5" stroke-opacity="0.2" stroke-miterlimit="10" stroke-dasharray=""/><path fill="none" stroke="rgb(0,0,0)" class="dcg-svg-minor-gridline" paint-order="fill stroke markers" d=" M 0 120.5 L 400 120.5" stroke-opacity="0.2" stroke-miterlimit="10" stroke-dasharray=""/><path fill="none" stroke="rgb(0,0,0)" class="dcg-svg-minor-gridline" paint-order="fill stroke markers" d=" M 0 80.5 L 400 80.5" stroke-opacity="0.2" stroke-miterlimit="10" stroke-dasharray=""/><path fill="none" stroke="rgb(0,0,0)" class="dcg-svg-minor-gridline" paint-order="fill stroke markers" d=" M 0 40.5 L 400 40.5" stroke-opacity="0.2" stroke-miterlimit="10" stroke-dasharray=""/><path fill="none" stroke="rgb(0,0,0)" class="dcg-svg-major-gridline" paint-order="fill stroke markers" d=" M 200.5 0 L 200.5 400" stroke-opacity="0.2500000000000001" stroke-miterlimit="10" stroke-dasharray=""/><path fill="none" stroke="rgb(0,0,0)" class="dcg-svg-major-gridline" paint-order="fill stroke markers" d=" M 0 200.5 L 400 200.5" stroke-opacity="0.2500000000000001" stroke-miterlimit="10" stroke-dasharray=""/></g></g><g id="axis-03375ec5"><g id="yaxis-03375ec5"><title>Y axis</title><g><path fill="none" stroke="rgb(0,0,0)" class="dcg-svg-axis-line" paint-order="fill stroke markers" d=" M 0 0 L 0 400" stroke-opacity="0.9" stroke-miterlimit="10" stroke-width="1.5" stroke-dasharray=""/></g></g><g id="xaxis-03375ec5"><title>X axis</title><g><path fill="none" stroke="rgb(0,0,0)" class="dcg-svg-axis-line" paint-order="fill stroke markers" d=" M 0 400 L 400 400" stroke-opacity="0.9" stroke-miterlimit="10" stroke-width="1.5" stroke-dasharray=""/></g></g><g><g class="dcg-svg-axis-value"><text fill="none" stroke="#ffffff" font-family="Arial" font-size="14px" font-style="normal" font-weight="normal" text-decoration="normal" x="-8.89306640625" y="415.808" text-anchor="middle" stroke-miterlimit="2" stroke-width="3" stroke-dasharray="">0</text><text fill="#000000" stroke="none" font-family="Arial" font-size="14px" font-style="normal" font-weight="normal" text-decoration="normal" x="-8.89306640625" y="415.808" text-anchor="middle">0</text></g><g class="dcg-svg-axis-value"><text fill="none" stroke="#ffffff" font-family="Arial" font-size="14px" font-style="normal" font-weight="normal" text-decoration="normal" x="200" y="393.808" text-anchor="middle" stroke-miterlimit="2" stroke-width="3" stroke-dasharray="">0.5</text><text fill="rgb(150,150,150)" stroke="none" font-family="Arial" font-size="14px" font-style="normal" font-weight="normal" text-decoration="normal" x="200" y="393.808" text-anchor="middle" fill-opacity="1">0.5</text></g><g class="dcg-svg-axis-value dcg-svg-offcenter-axis-value"><text fill="none" stroke="#ffffff" font-family="Arial" font-size="14px" font-style="normal" font-weight="normal" text-decoration="normal" x="393.10693359375" y="393.808" text-anchor="middle" stroke-miterlimit="2" stroke-width="3" stroke-dasharray="">1</text><text fill="rgb(150,150,150)" stroke="none" font-family="Arial" font-size="14px" font-style="normal" font-weight="normal" text-decoration="normal" x="393.10693359375" y="393.808" text-anchor="middle" fill-opacity="1">1</text></g><g class="dcg-svg-axis-value"><text fill="none" stroke="#ffffff" font-family="Arial" font-size="14px" font-style="normal" font-weight="normal" text-decoration="normal" x="16.6240234375" y="203.808" text-anchor="middle" stroke-miterlimit="2" stroke-width="3" stroke-dasharray="">0.05</text><text fill="rgb(150,150,150)" stroke="none" font-family="Arial" font-size="14px" font-style="normal" font-weight="normal" text-decoration="normal" x="16.6240234375" y="203.808" text-anchor="middle" fill-opacity="1">0.05</text></g><g class="dcg-svg-axis-value dcg-svg-offcenter-axis-value"><text fill="none" stroke="#ffffff" font-family="Arial" font-size="14px" font-style="normal" font-weight="normal" text-decoration="normal" x="12.73095703125" y="13.808" text-anchor="middle" stroke-miterlimit="2" stroke-width="3" stroke-dasharray="">0.1</text><text fill="rgb(150,150,150)" stroke="none" font-family="Arial" font-size="14px" font-style="normal" font-weight="normal" text-decoration="normal" x="12.73095703125" y="13.808" text-anchor="middle" fill-opacity="1">0.1</text></g></g></g></g><g id="expressions-03375ec5"><g id="sketch-03375ec5"><title>Expression 1</title><path fill="#c74440" stroke="none" paint-order="stroke fill markers" d="" fill-opacity="0.4"/><g><path fill="none" stroke="#c74440" class="dcg-svg-curve" paint-order="fill stroke markers" d=" M 0 400 L 0 400 L 1.85546875 399.8720913004959 L 3.80859375 399.46635715853205 L 5.76171875 398.7907029857084 L 7.8125 397.7997154928744 L 9.9609375 396.46224361788427 L 12.20703125 394.74792089504405 L 14.6484375 392.53193415427177 L 17.28515625 389.74327956555186 L 20.1171875 386.3118390891259 L 23.2421875 382.0282727338281 L 26.46484375 377.0959164502315 L 29.8828125 371.3296673832019 L 33.3984375 364.8640089995979 L 37.109375 357.49597460417135 L 41.11328125 348.97413954308973 L 45.41015625 339.23271093851923 L 50 328.22265625 L 55.078125 315.41155208869895 L 60.7421875 300.47049225870524 L 67.28515625 282.5388713698672 L 75.48828125 259.35278761585465 L 106.4453125 171.15448420192934 L 113.28125 152.7481558790896 L 119.43359375 136.83045805385206 L 125 123.052978515625 L 130.2734375 110.61869810148437 L 135.25390625 99.48231096825708 L 139.94140625 89.58251768410861 L 144.43359375 80.658580242131 L 148.828125 72.4909381246107 L 153.02734375 65.22955458183475 L 157.12890625 58.669484022745166 L 161.1328125 52.78997798634464 L 165.0390625 47.56736759738942 L 168.84765625 42.97554825132153 L 172.4609375 39.08519372637329 L 175.87890625 35.829918026708185 L 179.1015625 33.144256860418864 L 182.2265625 30.899644549231198 L 185.15625 29.11993861780502 L 187.98828125 27.700397000218402 L 190.8203125 26.578335657200114 L 193.5546875 25.77850902709997 L 196.19140625 25.271926680149193 L 198.828125 25.025748764528544 L 201.46484375 25.04023205608661 L 204.1015625 25.315361450361706 L 206.73828125 25.85084996258189 L 209.47265625 26.680573192949453 L 212.20703125 27.788763553418505 L 215.0390625 29.228761952276727 L 217.96875 31.029491225490347 L 220.99609375 33.22012653518556 L 224.12109375 35.829918026708185 L 227.34375 38.88799064443447 L 230.76171875 42.53294103341574 L 234.375 46.828509867191315 L 238.18359375 51.839036155912765 L 242.1875 57.62855717912316 L 246.19140625 63.93888334525997 L 250.29296875 70.92644677732238 L 254.58984375 78.79454196415878 L 258.984375 87.39718506731151 L 263.57421875 96.952964576532 L 268.359375 107.50078849414422 L 273.33984375 119.07058966687742 L 278.61328125 131.92441702335742 L 284.27734375 146.35134131037972 L 290.52734375 162.91906909953155 L 297.55859375 182.22534051449344 L 306.15234375 206.52122715216734 L 336.62109375 293.31989881814167 L 342.87109375 310.074088286116 L 348.33984375 324.10222904661765 L 353.22265625 336.01480425875394 L 357.71484375 346.37576760167264 L 361.9140625 355.47012228200856 L 365.8203125 363.35766901722764 L 369.53125 370.2886146551464 L 373.046875 376.30501989078766 L 376.3671875 381.4576142777014 L 379.58984375 385.93197562920665 L 382.6171875 389.6323500248627 L 385.44921875 392.62744114626145 L 387.98828125 394.9095191089796 L 390.33203125 396.6622781313177 L 392.578125 398.01028557158133 L 394.7265625 398.9844727148238 L 396.77734375 399.6167933977418 L 398.73046875 399.9399439280765 L 400 400" stroke-linecap="round" stroke-linejoin="round" stroke-miterlimit="10" stroke-width="2.5" stroke-dasharray=""/></g></g><g id="sketch-03375ec5"><title>Expression 3</title><path fill="#388c46" stroke="none" paint-order="stroke fill markers" d="" fill-opacity="0.4"/><g><path fill="none" stroke="#388c46" class="dcg-svg-curve" paint-order="fill stroke markers" d=" M 0 400 L 0 400 L 1.46484375 399.8678432927654 L 2.9296875 399.47910244511525 L 4.4921875 398.7944754239424 L 6.15234375 397.7765145128082 L 8.0078125 396.30361252862343 L 9.9609375 394.39374435278376 L 12.20703125 391.77265164003046 L 14.6484375 388.44816029406553 L 17.28515625 384.3509528584859 L 20.1171875 379.423421649194 L 23.2421875 373.4268450743979 L 26.66015625 366.2881335075536 L 30.46875 357.7376141114632 L 34.86328125 347.2528978591931 L 40.234375 333.79157902854513 L 48.2421875 313.010057460345 L 60.05859375 282.4001854486581 L 66.11328125 267.3784642380929 L 71.2890625 255.14200192517336 L 75.9765625 244.6522265877225 L 80.37109375 235.40220846025255 L 84.47265625 227.32862029254576 L 88.4765625 220.00541504368906 L 92.28515625 213.57783732089004 L 95.99609375 207.83962809524897 L 99.70703125 202.63402844126526 L 103.3203125 198.08772333941053 L 106.73828125 194.26794465231924 L 109.9609375 191.09785924787425 L 113.0859375 188.42487954923445 L 116.015625 186.2772261038418 L 118.84765625 184.52934683020385 L 121.58203125 183.1457768426319 L 124.31640625 182.0581505009739 L 126.953125 181.2864523638631 L 129.58984375 180.78312578729 L 132.2265625 180.5440082837737 L 134.86328125 180.56444113066857 L 137.5 180.83929978311062 L 140.234375 181.38712359177083 L 143.06640625 182.22954730823264 L 145.8984375 183.34402229498892 L 148.92578125 184.82673682724263 L 152.05078125 186.66194032925122 L 155.2734375 188.86568310474632 L 158.69140625 191.5326602378657 L 162.3046875 194.70203396766615 L 166.2109375 198.50883497444843 L 170.41015625 203.0111289336134 L 175 208.37762355804443 L 179.98046875 214.67425718144804 L 185.546875 222.2224743828939 L 191.69921875 231.0942893463769 L 198.73046875 241.77281326571017 L 207.421875 255.5302306472093 L 223.4375 281.5470020087659 L 235.25390625 300.46536171273385 L 243.65234375 313.3942474515921 L 250.9765625 324.1553950928212 L 257.71484375 333.5404647849798 L 264.0625 341.8686206837137 L 270.01953125 349.1907475341974 L 275.68359375 355.6824561482143 L 281.0546875 361.3978899442248 L 286.23046875 366.48990565809555 L 291.30859375 371.0847150649347 L 296.19140625 375.12757151023254 L 300.9765625 378.73539103170276 L 305.76171875 381.99820959905446 L 310.44921875 384.86791714092385 L 315.13671875 387.4247291210219 L 319.82421875 389.6810490205514 L 324.609375 391.6894159955383 L 329.4921875 393.44942748011573 L 334.47265625 394.96439629364835 L 339.6484375 396.26359996150467 L 345.1171875 397.3617334886583 L 350.87890625 398.25004578228743 L 357.12890625 398.9481633145889 L 364.16015625 399.4658178940422 L 372.4609375 399.8051958866558 L 383.3984375 399.9727393260632 L 400 400" stroke-linecap="round" stroke-linejoin="round" stroke-miterlimit="10" stroke-width="2.5" stroke-dasharray=""/></g></g></g><g id="labels-03375ec5"/><g id="labels-03375ec5"/></g></svg>