<svg version="1.1" xmlns="http://www.w3.org/2000/svg" xmlns:xlink="http://www.w3.org/1999/xlink" width="800" height="800"><defs/><g transform="scale(2,2)"><g id="background-23f1357e"><rect fill="white" stroke="none" x="0" y="0" width="400" height="400" class="dcg-svg-background"/></g><g id="graphpaper-23f1357e"><g id="grid-23f1357e"><g><path fill="none" stroke="rgb(0,0,0)" class="dcg-svg-minor-gridline" paint-order="fill stroke markers" d=" M 25.5 0 L 25.5 400" stroke-opacity="0.2" stroke-miterlimit="10" stroke-dasharray=""/><path fill="none" stroke="rgb(0,0,0)" class="dcg-svg-minor-gridline" paint-order="fill stroke markers" d=" M 50.5 0 L 50.5 400" stroke-opacity="0.2" stroke-miterlimit="10" stroke-dasharray=""/><path fill="none" stroke="rgb(0,0,0)" class="dcg-svg-minor-gridline" paint-order="fill stroke markers" d=" M 75.5 0 L 75.5 400" stroke-opacity="0.2" stroke-miterlimit="10" stroke-dasharray=""/><path fill="none" stroke="rgb(0,0,0)" class="dcg-svg-minor-gridline" paint-order="fill stroke markers" d=" M 100.5 0 L 100.5 400" stroke-opacity="0.2" stroke-miterlimit="10" stroke-dasharray=""/><path fill="none" stroke="rgb(0,0,0)" class="dcg-svg-minor-gridline" paint-order="fill stroke markers" d=" M 125.5 0 L 125.5 400" stroke-opacity="0.2" stroke-miterlimit="10" stroke-dasharray=""/><path fill="none" stroke="rgb(0,0,0)" class="dcg-svg-minor-gridline" paint-order="fill stroke markers" d=" M 175.5 0 L 175.5 400" stroke-opacity="0.2" stroke-miterlimit="10" stroke-dasharray=""/><path fill="none" stroke="rgb(0,0,0)" class="dcg-svg-minor-gridline" paint-order="fill stroke markers" d=" M 200.5 0 L 200.5 400" stroke-opacity="0.2" stroke-miterlimit="10" stroke-dasharray=""/><path fill="none" stroke="rgb(0,0,0)" class="dcg-svg-minor-gridline" paint-order="fill stroke markers" d=" M 225.5 0 L 225.5 400" stroke-opacity="0.2" stroke-miterlimit="10" stroke-dasharray=""/><path fill="none" stroke="rgb(0,0,0)" class="dcg-svg-minor-gridline" paint-order="fill stroke markers" d=" M 250.5 0 L 250.5 400" stroke-opacity="0.2" stroke-miterlimit="10" stroke-dasharray=""/><path fill="none" stroke="rgb(0,0,0)" class="dcg-svg-minor-gridline" paint-order="fill stroke markers" d=" M 275.5 0 L 275.5 400" stroke-opacity="0.2" stroke-miterlimit="10" stroke-dasharray=""/><path fill="none" stroke="rgb(0,0,0)" class="dcg-svg-minor-gridline" paint-order="fill stroke markers" d=" M 300.5 0 L 300.5 400" stroke-opacity="0.2" stroke-miterlimit="10" stroke-dasharray=""/><path fill="none" stroke="rgb(0,0,0)" class="dcg-svg-minor-gridline" paint-order="fill stroke markers" d=" M 325.5 0 L 325.5 400" stroke-opacity="0.2" stroke-miterlimit="10" stroke-dasharray=""/><path fill="none" stroke="rgb(0,0,0)" class="dcg-svg-minor-gridline" paint-order="fill stroke markers" d=" M 350.5 0 L 350.5 400" stroke-opacity="0.2" stroke-miterlimit="10" stroke-dasharray=""/><path fill="none" stroke="rgb(0,0,0)" class="dcg-svg-minor-gridline" paint-order="fill stroke markers" d=" M 375.5 0 L 375.5 400" stroke-opacity="0.2" stroke-miterlimit="10" stroke-dasharray=""/><path fill="none" stroke="rgb(0,0,0)" class="dcg-svg-minor-gridline" paint-order="fill stroke markers" d=" M 0 380.5 L 400 380.5" stroke-opacity="0.2" stroke-miterlimit="10" stroke-dasharray=""/><path fill="none" stroke="rgb(0,0,0)" class="dcg-svg-minor-gridline" paint-order="fill stroke markers" d=" M 0 360.5 L 400 360.5" stroke-opacity="0.2" stroke-miterlimit="10" stroke-dasharray=""/><path fill="none" stroke="rgb(0,0,0)" class="dcg-svg-minor-gridline" paint-order="fill stroke markers" d=" M 0 340.5 L 400 340.5" stroke-opacity="0.2" stroke-miterlimit="10" stroke-dasharray=""/><path fill="none" stroke="rgb(0,0,0)" class="dcg-svg-minor-gridline" paint-order="fill stroke markers" d=" M 0 320.5 L 400 320.5" stroke-opacity="0.2" stroke-miterlimit="10" stroke-dasharray=""/><path fill="none" stroke="rgb(0,0,0)" class="dcg-svg-minor-gridline" paint-order="fill stroke markers" d=" M 0 300.5 L 400 300.5" stroke-opacity="0.2" stroke-miterlimit="10" stroke-dasharray=""/><path fill="none" stroke="rgb(0,0,0)" class="dcg-svg-minor-gridline" paint-order="fill stroke markers" d=" M 0 280.5 L 400 280.5" stroke-opacity="0.2" stroke-miterlimit="10" stroke-dasharray=""/><path fill="none" stroke="rgb(0,0,0)" class="dcg-svg-minor-gridline" paint-order="fill stroke markers" d=" M 0 260.5 L 400 260.5" stroke-opacity="0.2" stroke-miterlimit="10" stroke-dasharray=""/><path fill="none" stroke="rgb(0,0,0)" class="dcg-svg-minor-gridline" paint-order="fill stroke markers" d=" M 0 240.5 L 400 240.5" stroke-opacity="0.2" stroke-miterlimit="10" stroke-dasharray=""/><path fill="none" stroke="rgb(0,0,0)" class="dcg-svg-minor-gridline" paint-order="fill stroke markers" d=" M 0 220.5 L 400 220.5" stroke-opacity="0.2" stroke-miterlimit="10" stroke-dasharray=""/><path fill="none" stroke="rgb(0,0,0)" class="dcg-svg-minor-gridline" paint-order="fill stroke markers" d=" M 0 200.5 L 400 200.5" stroke-opacity="0.2" stroke-miterlimit="10" stroke-dasharray=""/><path fill="none" stroke="rgb(0,0,0)" class="dcg-svg-minor-gridline" paint-order="fill stroke markers" d=" M 0 180.5 L 400 180.5" stroke-opacity="0.2" stroke-miterlimit="10" stroke-dasharray=""/><path fill="none" stroke="rgb(0,0,0)" class="dcg-svg-minor-gridline" paint-order="fill stroke markers" d=" M 0 160.5 L 400 160.5" stroke-opacity="0.2" stroke-miterlimit="10" stroke-dasharray=""/><path fill="none" stroke="rgb(0,0,0)" class="dcg-svg-minor-gridline" paint-order="fill stroke markers" d=" M 0 140.5 L 400 140.5" stroke-opacity="0.2" stroke-miterlimit="10" stroke-dasharray=""/><path fill="none" stroke="rgb(0,0,0)" class="dcg-svg-minor-gridline" paint-order="fill stroke markers" d=" M 0 120.5 L 400 120.5" stroke-opacity="0.2" stroke-miterlimit="10" stroke-dasharray=""/><path fill="none" stroke="rgb(0,0,0)" class="dcg-svg-minor-gridline" paint-order="fill stroke markers" d=" M 0 100.5 L 400 100.5" stroke-opacity="0.2" stroke-miterlimit="10" stroke-dasharray=""/><path fill="none" stroke="rgb(0,0,0)" class="dcg-svg-minor-gridline" paint-order="fill stroke markers" d=" M 0 80.5 L 400 80.5" stroke-opacity="0.2" stroke-miterlimit="10" stroke-dasharray=""/><path fill="none" stroke="rgb(0,0,0)" class="dcg-svg-minor-gridline" paint-order="fill stroke markers" d=" M 0 60.5 L 400 60.5" stroke-opacity="0.2" stroke-miterlimit="10" stroke-dasharray=""/><path fill="none" stroke="rgb(0,0,0)" class="dcg-svg-minor-gridline" paint-order="fill stroke markers" d=" M 0 40.5 L 400 40.5" stroke-opacity="0.2" stroke-miterlimit="10" stroke-dasharray=""/><path fill="none" stroke="rgb(0,0,0)" class="dcg-svg-minor-gridline" paint-order="fill stroke markers" d=" M 0 20.5 L 400 20.5" stroke-opacity="0.2" stroke-miterlimit="10" stroke-dasharray=""/><path fill="none" stroke="rgb(0,0,0)" class="dcg-svg-major-gridline" paint-order="fill stroke markers" d=" M 25.5 0 L 25.5 400" stroke-opacity="0.2500000000000001" stroke-miterlimit="10" stroke-dasharray=""/><path fill="none" stroke="rgb(0,0,0)" class="dcg-svg-major-gridline" paint-order="fill stroke markers" d=" M 275.5 0 L 275.5 400" stroke-opacity="0.2500000000000001" stroke-miterlimit="10" stroke-dasharray=""/><path fill="none" stroke="rgb(0,0,0)" class="dcg-svg-major-gridline" paint-order="fill stroke markers" d=" M 0 300.5 L 400 300.5" stroke-opacity="0.2500000000000001" stroke-miterlimit="10" stroke-dasharray=""/><path fill="none" stroke="rgb(0,0,0)" class="dcg-svg-major-gridline" paint-order="fill stroke markers" d=" M 0 200.5 L 400 200.5" stroke-opacity="0.2500000000000001" stroke-miterlimit="10" stroke-dasharray=""/><path fill="none" stroke="rgb(0,0,0)" class="dcg-svg-major-gridline" paint-order="fill stroke markers" d=" M 0 99.5 L 400 99.5" stroke-opacity="0.2500000000000001" stroke-miterlimit="10" stroke-dasharray=""/></g></g><g id="axis-23f1357e"><g id="yaxis-23f1357e"><title>Y axis</title><g><path fill="none" stroke="rgb(0,0,0)" class="dcg-svg-axis-line" paint-order="fill stroke markers" d=" M 150 0 L 150 400" stroke-opacity="0.9" stroke-miterlimit="10" stroke-width="1.5" stroke-dasharray=""/></g></g><g id="xaxis-23f1357e"><title>X axis</title><g><path fill="none" stroke="rgb(0,0,0)" class="dcg-svg-axis-line" paint-order="fill stroke markers" d=" M 0 400 L 400 400" stroke-opacity="0.9" stroke-miterlimit="10" stroke-width="1.5" stroke-dasharray=""/></g></g><g><g class="dcg-svg-axis-value"><text fill="none" stroke="#ffffff" font-family="Arial" font-size="14px" font-style="normal" font-weight="normal" text-decoration="normal" x="141.10693359375" y="415.808" text-anchor="middle" stroke-miterlimit="2" stroke-width="3" stroke-dasharray="">0</text><text fill="#000000" stroke="none" font-family="Arial" font-size="14px" font-style="normal" font-weight="normal" text-decoration="normal" x="141.10693359375" y="415.808" text-anchor="middle">0</text></g><g class="dcg-svg-axis-value"><text fill="none" stroke="#ffffff" font-family="Arial" font-size="14px" font-style="normal" font-weight="normal" text-decoration="normal" x="22.6689453125" y="393.808" text-anchor="middle" stroke-miterlimit="2" stroke-width="3" stroke-dasharray="">-5</text><text fill="rgb(150,150,150)" stroke="none" font-family="Arial" font-size="14px" font-style="normal" font-weight="normal" text-decoration="normal" x="22.6689453125" y="393.808" text-anchor="middle" fill-opacity="1">-5</text></g><g class="dcg-svg-axis-value"><text fill="none" stroke="#ffffff" font-family="Arial" font-size="14px" font-style="normal" font-weight="normal" text-decoration="normal" x="275" y="393.808" text-anchor="middle" stroke-miterlimit="2" stroke-width="3" stroke-dasharray="">5</text><text fill="rgb(150,150,150)" stroke="none" font-family="Arial" font-size="14px" font-style="normal" font-weight="normal" text-decoration="normal" x="275" y="393.808" text-anchor="middle" fill-opacity="1">5</text></g><g class="dcg-svg-axis-value dcg-svg-offcenter-axis-value"><text fill="none" stroke="#ffffff" font-family="Arial" font-size="14px" font-style="normal" font-weight="normal" text-decoration="normal" x="389.2138671875" y="393.808" text-anchor="middle" stroke-miterlimit="2" stroke-width="3" stroke-dasharray="">10</text><text fill="rgb(150,150,150)" stroke="none" font-family="Arial" font-size="14px" font-style="normal" font-weight="normal" text-decoration="normal" x="389.2138671875" y="393.808" text-anchor="middle" fill-opacity="1">10</text></g><g class="dcg-svg-axis-value"><text fill="none" stroke="#ffffff" font-family="Arial" font-size="14px" font-style="normal" font-weight="normal" text-decoration="normal" x="135.26904296875" y="303.808" text-anchor="middle" stroke-miterlimit="2" stroke-width="3" stroke-dasharray="">0.1</text><text fill="#000000" stroke="none" font-family="Arial" font-size="14px" font-style="normal" font-weight="normal" text-decoration="normal" x="135.26904296875" y="303.808" text-anchor="middle">0.1</text></g><g class="dcg-svg-axis-value"><text fill="none" stroke="#ffffff" font-family="Arial" font-size="14px" font-style="normal" font-weight="normal" text-decoration="normal" x="135.26904296875" y="203.808" text-anchor="middle" stroke-miterlimit="2" stroke-width="3" stroke-dasharray="">0.2</text><text fill="#000000" stroke="none" font-family="Arial" font-size="14px" font-style="normal" font-weight="normal" text-decoration="normal" x="135.26904296875" y="203.808" text-anchor="middle">0.2</text></g><g class="dcg-svg-axis-value"><text fill="none" stroke="#ffffff" font-family="Arial" font-size="14px" font-style="normal" font-weight="normal" text-decoration="normal" x="135.26904296875" y="103.808" text-anchor="middle" stroke-miterlimit="2" stroke-width="3" stroke-dasharray="">0.3</text><text fill="#000000" stroke="none" font-family="Arial" font-size="14px" font-style="normal" font-weight="normal" text-decoration="normal" x="135.26904296875" y="103.808" text-anchor="middle">0.3</text></g><g class="dcg-svg-axis-value dcg-svg-offcenter-axis-value"><text fill="none" stroke="#ffffff" font-family="Arial" font-size="14px" font-style="normal" font-weight="normal" text-decoration="normal" x="135.26904296875" y="13.808" text-anchor="middle" stroke-miterlimit="2" stroke-width="3" stroke-dasharray="">0.4</text><text fill="#000000" stroke="none" font-family="Arial" font-size="14px" font-style="normal" font-weight="normal" text-decoration="normal" x="135.26904296875" y="13.808" text-anchor="middle">0.4</text></g></g></g></g><g id="expressions-23f1357e"><g id="sketch-23f1357e"><title>Expression 1</title><path fill="#c74440" stroke="none" paint-order="stroke fill markers" d="" fill-opacity="0.4"/><g><path fill="none" stroke="#c74440" class="dcg-svg-curve" paint-order="fill stroke markers" d=" M 0 399.99999999999494 L 0 399.99999999999494 L 99.8046875 399.8702912558683 L 107.32421875 399.5861383742978 L 112.3046875 399.1508823451797 L 116.11328125 398.56777170507206 L 119.23828125 397.83839160175614 L 121.97265625 396.9406464128083 L 124.4140625 395.8701974893943 L 126.66015625 394.60306823318433 L 128.80859375 393.0811907114508 L 130.859375 391.28996398755476 L 132.91015625 389.108539538778 L 134.9609375 386.4721161579701 L 136.9140625 383.47377790071266 L 138.76953125 380.1246453759307 L 140.625 376.2280991700862 L 142.3828125 371.9770306041673 L 144.140625 367.1286674958727 L 145.8984375 361.6316272538661 L 147.65625 355.4361846581097 L 149.51171875 348.0872974392459 L 151.3671875 339.8587246041746 L 153.3203125 330.2008267111195 L 155.2734375 319.4849252132549 L 157.32421875 307.07070812669593 L 159.47265625 292.7841306531109 L 161.71875 276.4737771216891 L 164.16015625 257.2319585115936 L 166.796875 234.84924259919666 L 169.921875 206.54172368018558 L 174.21875 165.58841875421822 L 180.6640625 104.19100390556287 L 183.49609375 79.16928751888491 L 185.83984375 60.18249423555534 L 187.79296875 45.89005067399205 L 189.55078125 34.426333874271336 L 191.11328125 25.482800053297126 L 192.578125 18.256329795341856 L 193.84765625 12.957046091236407 L 195.01953125 8.896320185280672 L 196.09375 5.898017543337687 L 197.0703125 3.7876556281947273 L 198.046875 2.2733389880897903 L 198.92578125 1.4258359122344473 L 199.609375 1.1064156351746988 L 200.29296875 1.0851118505896125 L 200.9765625 1.3619723258423733 L 201.66015625 1.9363764167133581 L 202.44140625 2.9554963829909298 L 203.3203125 4.560752639984457 L 204.296875 6.906994941110668 L 205.37109375 10.159443001986574 L 206.54296875 14.489513978555237 L 207.8125 20.0693938013722 L 209.1796875 27.065270759802843 L 210.64453125 35.6292441253089 L 212.3046875 46.56751457494323 L 214.16015625 60.18249423555534 L 216.30859375 77.52017965790407 L 218.84765625 99.74580610187729 L 222.16796875 130.73886387506752 L 232.6171875 229.67438124398618 L 235.546875 254.82317416510148 L 238.0859375 274.99098714108436 L 240.4296875 292.10386615657086 L 242.67578125 307.07070812669593 L 244.82421875 320.04625527342967 L 246.875 331.2137241733081 L 248.828125 340.7676341480462 L 250.78125 349.30494027502334 L 252.63671875 356.519288882647 L 254.4921875 362.9118338531022 L 256.34765625 368.5383276598396 L 258.203125 373.45785789508113 L 260.05859375 377.7311464762727 L 261.9140625 381.41906904085266 L 263.8671875 384.73438926165574 L 265.91796875 387.66212422219286 L 268.06640625 390.199942843598 L 270.21484375 392.2730260356462 L 272.36328125 393.95240200755933 L 274.609375 395.35602966749866 L 276.953125 396.5048021344835 L 279.4921875 397.4563235724772 L 282.32421875 398.2370383481413 L 285.64453125 398.87156901460656 L 289.6484375 399.3563866563035 L 294.7265625 399.6956815426096 L 302.1484375 399.9054499430145 L 316.2109375 399.99189414671037 L 400 399.99999999999494" stroke-linecap="round" stroke-linejoin="round" stroke-miterlimit="10" stroke-width="2.5" stroke-dasharray=""/></g></g><g id="sketch-23f1357e"><title>Expression 3</title><path fill="#6042a6" stroke="none" paint-order="stroke fill markers" d="" fill-opacity="0.4"/><g><path fill="none" stroke="#6042a6" class="dcg-svg-curve" paint-order="fill stroke markers" d=" M 0 386.50225837170296 L 0 386.50225837170296 L 8.10546875 384.178863036887 L 16.11328125 381.61001692965584 L 24.0234375 378.79716588968637 L 31.93359375 375.7065555272188 L 39.94140625 372.2957809741893 L 48.14453125 368.51478044637145 L 56.73828125 364.25800308014664 L 65.8203125 359.45903445730147 L 75.87890625 353.83508523213715 L 87.890625 346.7979576039947 L 127.734375 323.18450659701057 L 136.42578125 318.5134219506117 L 144.04296875 314.7180422110178 L 150.9765625 311.5570675062835 L 157.421875 308.90731103132725 L 163.4765625 306.6996079093358 L 169.23828125 304.87343979898685 L 174.8046875 303.3803442629511 L 180.17578125 302.20510256580684 L 185.44921875 301.31468778955104 L 190.625 300.70175934641907 L 195.80078125 300.3523251966793 L 200.87890625 300.26828199294135 L 205.95703125 300.44123492537085 L 211.1328125 300.8805777064818 L 216.30859375 301.581984352123 L 221.58203125 302.5603530193953 L 226.953125 303.8221735044823 L 232.51953125 305.4010488278146 L 238.28125 307.311011456337 L 244.3359375 309.6005107984009 L 250.68359375 312.2860413019439 L 257.51953125 315.47075569856236 L 264.94140625 319.22616632921665 L 273.33984375 323.7829073451584 L 283.30078125 329.50291391653764 L 297.65625 338.08978276217687 L 320.5078125 351.7490391787352 L 331.640625 358.06756312718136 L 341.30859375 363.2508001998044 L 350.1953125 367.71538536016055 L 358.59375 371.6415936159146 L 366.796875 375.1846476212749 L 374.8046875 378.35686214389784 L 382.8125 381.2442217768026 L 390.8203125 383.85027855507445 L 398.92578125 386.20992593983084 L 400 386.50225837170296" stroke-linecap="round" stroke-linejoin="round" stroke-miterlimit="10" stroke-width="2.5" stroke-dasharray=""/></g></g></g><g id="labels-23f1357e"/><g id="labels-23f1357e"/></g></svg>