<svg version="1.1" xmlns="http://www.w3.org/2000/svg" xmlns:xlink="http://www.w3.org/1999/xlink" width="800" height="800"><defs/><g transform="scale(2,2)"><g id="background-019118cc"><rect fill="white" stroke="none" x="0" y="0" width="400" height="400" class="dcg-svg-background"/></g><g id="graphpaper-019118cc"><g id="grid-019118cc"><g><path fill="none" stroke="rgb(0,0,0)" class="dcg-svg-minor-gridline" paint-order="fill stroke markers" d=" M 20.5 0 L 20.5 400" stroke-opacity="0.2" stroke-miterlimit="10" stroke-dasharray=""/><path fill="none" stroke="rgb(0,0,0)" class="dcg-svg-minor-gridline" paint-order="fill stroke markers" d=" M 40.5 0 L 40.5 400" stroke-opacity="0.2" stroke-miterlimit="10" stroke-dasharray=""/><path fill="none" stroke="rgb(0,0,0)" class="dcg-svg-minor-gridline" paint-order="fill stroke markers" d=" M 60.5 0 L 60.5 400" stroke-opacity="0.2" stroke-miterlimit="10" stroke-dasharray=""/><path fill="none" stroke="rgb(0,0,0)" class="dcg-svg-minor-gridline" paint-order="fill stroke markers" d=" M 80.5 0 L 80.5 400" stroke-opacity="0.2" stroke-miterlimit="10" stroke-dasharray=""/><path fill="none" stroke="rgb(0,0,0)" class="dcg-svg-minor-gridline" paint-order="fill stroke markers" d=" M 100.5 0 L 100.5 400" stroke-opacity="0.2" stroke-miterlimit="10" stroke-dasharray=""/><path fill="none" stroke="rgb(0,0,0)" class="dcg-svg-minor-gridline" paint-order="fill stroke markers" d=" M 120.5 0 L 120.5 400" stroke-opacity="0.2" stroke-miterlimit="10" stroke-dasharray=""/><path fill="none" stroke="rgb(0,0,0)" class="dcg-svg-minor-gridline" paint-order="fill stroke markers" d=" M 140.5 0 L 140.5 400" stroke-opacity="0.2" stroke-miterlimit="10" stroke-dasharray=""/><path fill="none" stroke="rgb(0,0,0)" class="dcg-svg-minor-gridline" paint-order="fill stroke markers" d=" M 160.5 0 L 160.5 400" stroke-opacity="0.2" stroke-miterlimit="10" stroke-dasharray=""/><path fill="none" stroke="rgb(0,0,0)" class="dcg-svg-minor-gridline" paint-order="fill stroke markers" d=" M 180.5 0 L 180.5 400" stroke-opacity="0.2" stroke-miterlimit="10" stroke-dasharray=""/><path fill="none" stroke="rgb(0,0,0)" class="dcg-svg-minor-gridline" paint-order="fill stroke markers" d=" M 220.5 0 L 220.5 400" stroke-opacity="0.2" stroke-miterlimit="10" stroke-dasharray=""/><path fill="none" stroke="rgb(0,0,0)" class="dcg-svg-minor-gridline" paint-order="fill stroke markers" d=" M 240.5 0 L 240.5 400" stroke-opacity="0.2" stroke-miterlimit="10" stroke-dasharray=""/><path fill="none" stroke="rgb(0,0,0)" class="dcg-svg-minor-gridline" paint-order="fill stroke markers" d=" M 260.5 0 L 260.5 400" stroke-opacity="0.2" stroke-miterlimit="10" stroke-dasharray=""/><path fill="none" stroke="rgb(0,0,0)" class="dcg-svg-minor-gridline" paint-order="fill stroke markers" d=" M 280.5 0 L 280.5 400" stroke-opacity="0.2" stroke-miterlimit="10" stroke-dasharray=""/><path fill="none" stroke="rgb(0,0,0)" class="dcg-svg-minor-gridline" paint-order="fill stroke markers" d=" M 300.5 0 L 300.5 400" stroke-opacity="0.2" stroke-miterlimit="10" stroke-dasharray=""/><path fill="none" stroke="rgb(0,0,0)" class="dcg-svg-minor-gridline" paint-order="fill stroke markers" d=" M 320.5 0 L 320.5 400" stroke-opacity="0.2" stroke-miterlimit="10" stroke-dasharray=""/><path fill="none" stroke="rgb(0,0,0)" class="dcg-svg-minor-gridline" paint-order="fill stroke markers" d=" M 340.5 0 L 340.5 400" stroke-opacity="0.2" stroke-miterlimit="10" stroke-dasharray=""/><path fill="none" stroke="rgb(0,0,0)" class="dcg-svg-minor-gridline" paint-order="fill stroke markers" d=" M 360.5 0 L 360.5 400" stroke-opacity="0.2" stroke-miterlimit="10" stroke-dasharray=""/><path fill="none" stroke="rgb(0,0,0)" class="dcg-svg-minor-gridline" paint-order="fill stroke markers" d=" M 380.5 0 L 380.5 400" stroke-opacity="0.2" stroke-miterlimit="10" stroke-dasharray=""/><path fill="none" stroke="rgb(0,0,0)" class="dcg-svg-minor-gridline" paint-order="fill stroke markers" d=" M 0 373.5 L 400 373.5" stroke-opacity="0.2" stroke-miterlimit="10" stroke-dasharray=""/><path fill="none" stroke="rgb(0,0,0)" class="dcg-svg-minor-gridline" paint-order="fill stroke markers" d=" M 0 346.5 L 400 346.5" stroke-opacity="0.2" stroke-miterlimit="10" stroke-dasharray=""/><path fill="none" stroke="rgb(0,0,0)" class="dcg-svg-minor-gridline" paint-order="fill stroke markers" d=" M 0 320.5 L 400 320.5" stroke-opacity="0.2" stroke-miterlimit="10" stroke-dasharray=""/><path fill="none" stroke="rgb(0,0,0)" class="dcg-svg-minor-gridline" paint-order="fill stroke markers" d=" M 0 293.5 L 400 293.5" stroke-opacity="0.2" stroke-miterlimit="10" stroke-dasharray=""/><path fill="none" stroke="rgb(0,0,0)" class="dcg-svg-minor-gridline" paint-order="fill stroke markers" d=" M 0 266.5 L 400 266.5" stroke-opacity="0.2" stroke-miterlimit="10" stroke-dasharray=""/><path fill="none" stroke="rgb(0,0,0)" class="dcg-svg-minor-gridline" paint-order="fill stroke markers" d=" M 0 240.5 L 400 240.5" stroke-opacity="0.2" stroke-miterlimit="10" stroke-dasharray=""/><path fill="none" stroke="rgb(0,0,0)" class="dcg-svg-minor-gridline" paint-order="fill stroke markers" d=" M 0 213.5 L 400 213.5" stroke-opacity="0.2" stroke-miterlimit="10" stroke-dasharray=""/><path fill="none" stroke="rgb(0,0,0)" class="dcg-svg-minor-gridline" paint-order="fill stroke markers" d=" M 0 186.5 L 400 186.5" stroke-opacity="0.2" stroke-miterlimit="10" stroke-dasharray=""/><path fill="none" stroke="rgb(0,0,0)" class="dcg-svg-minor-gridline" paint-order="fill stroke markers" d=" M 0 159.5 L 400 159.5" stroke-opacity="0.2" stroke-miterlimit="10" stroke-dasharray=""/><path fill="none" stroke="rgb(0,0,0)" class="dcg-svg-minor-gridline" paint-order="fill stroke markers" d=" M 0 133.5 L 400 133.5" stroke-opacity="0.2" stroke-miterlimit="10" stroke-dasharray=""/><path fill="none" stroke="rgb(0,0,0)" class="dcg-svg-minor-gridline" paint-order="fill stroke markers" d=" M 0 106.5 L 400 106.5" stroke-opacity="0.2" stroke-miterlimit="10" stroke-dasharray=""/><path fill="none" stroke="rgb(0,0,0)" class="dcg-svg-minor-gridline" paint-order="fill stroke markers" d=" M 0 80.5 L 400 80.5" stroke-opacity="0.2" stroke-miterlimit="10" stroke-dasharray=""/><path fill="none" stroke="rgb(0,0,0)" class="dcg-svg-minor-gridline" paint-order="fill stroke markers" d=" M 0 53.5 L 400 53.5" stroke-opacity="0.2" stroke-miterlimit="10" stroke-dasharray=""/><path fill="none" stroke="rgb(0,0,0)" class="dcg-svg-minor-gridline" paint-order="fill stroke markers" d=" M 0 26.5 L 400 26.5" stroke-opacity="0.2" stroke-miterlimit="10" stroke-dasharray=""/><path fill="none" stroke="rgb(0,0,0)" class="dcg-svg-minor-gridline" paint-order="fill stroke markers" d=" M 0 -0.5 L 400 -0.5" stroke-opacity="0.2" stroke-miterlimit="10" stroke-dasharray=""/><path fill="none" stroke="rgb(0,0,0)" class="dcg-svg-major-gridline" paint-order="fill stroke markers" d=" M 100.5 0 L 100.5 400" stroke-opacity="0.2500000000000001" stroke-miterlimit="10" stroke-dasharray=""/><path fill="none" stroke="rgb(0,0,0)" class="dcg-svg-major-gridline" paint-order="fill stroke markers" d=" M 300.5 0 L 300.5 400" stroke-opacity="0.2500000000000001" stroke-miterlimit="10" stroke-dasharray=""/><path fill="none" stroke="rgb(0,0,0)" class="dcg-svg-major-gridline" paint-order="fill stroke markers" d=" M 0 266.5 L 400 266.5" stroke-opacity="0.2500000000000001" stroke-miterlimit="10" stroke-dasharray=""/><path fill="none" stroke="rgb(0,0,0)" class="dcg-svg-major-gridline" paint-order="fill stroke markers" d=" M 0 133.5 L 400 133.5" stroke-opacity="0.2500000000000001" stroke-miterlimit="10" stroke-dasharray=""/></g></g><g id="axis-019118cc"><g id="yaxis-019118cc"><title>Y axis</title><g><path fill="none" stroke="rgb(0,0,0)" class="dcg-svg-axis-line" paint-order="fill stroke markers" d=" M 200 0 L 200 400" stroke-opacity="0.9" stroke-miterlimit="10" stroke-width="1.5" stroke-dasharray=""/></g></g><g id="xaxis-019118cc"><title>X axis</title><g><path fill="none" stroke="rgb(0,0,0)" class="dcg-svg-axis-line" paint-order="fill stroke markers" d=" M 0 400 L 400 400" stroke-opacity="0.9" stroke-miterlimit="10" stroke-width="1.5" stroke-dasharray=""/></g></g><g><g class="dcg-svg-axis-value"><text fill="none" stroke="#ffffff" font-family="Arial" font-size="14px" font-style="normal" font-weight="normal" text-decoration="normal" x="191.10693359375" y="415.808" text-anchor="middle" stroke-miterlimit="2" stroke-width="3" stroke-dasharray="">0</text><text fill="#000000" stroke="none" font-family="Arial" font-size="14px" font-style="normal" font-weight="normal" text-decoration="normal" x="191.10693359375" y="415.808" text-anchor="middle">0</text></g><g class="dcg-svg-axis-value dcg-svg-offcenter-axis-value"><text fill="none" stroke="#ffffff" font-family="Arial" font-size="14px" font-style="normal" font-weight="normal" text-decoration="normal" x="13.1171875" y="393.808" text-anchor="middle" stroke-miterlimit="2" stroke-width="3" stroke-dasharray="">-10</text><text fill="rgb(150,150,150)" stroke="none" font-family="Arial" font-size="14px" font-style="normal" font-weight="normal" text-decoration="normal" x="13.1171875" y="393.808" text-anchor="middle" fill-opacity="1">-10</text></g><g class="dcg-svg-axis-value"><text fill="none" stroke="#ffffff" font-family="Arial" font-size="14px" font-style="normal" font-weight="normal" text-decoration="normal" x="97.6689453125" y="393.808" text-anchor="middle" stroke-miterlimit="2" stroke-width="3" stroke-dasharray="">-5</text><text fill="rgb(150,150,150)" stroke="none" font-family="Arial" font-size="14px" font-style="normal" font-weight="normal" text-decoration="normal" x="97.6689453125" y="393.808" text-anchor="middle" fill-opacity="1">-5</text></g><g class="dcg-svg-axis-value"><text fill="none" stroke="#ffffff" font-family="Arial" font-size="14px" font-style="normal" font-weight="normal" text-decoration="normal" x="300" y="393.808" text-anchor="middle" stroke-miterlimit="2" stroke-width="3" stroke-dasharray="">5</text><text fill="rgb(150,150,150)" stroke="none" font-family="Arial" font-size="14px" font-style="normal" font-weight="normal" text-decoration="normal" x="300" y="393.808" text-anchor="middle" fill-opacity="1">5</text></g><g class="dcg-svg-axis-value dcg-svg-offcenter-axis-value"><text fill="none" stroke="#ffffff" font-family="Arial" font-size="14px" font-style="normal" font-weight="normal" text-decoration="normal" x="389.2138671875" y="393.808" text-anchor="middle" stroke-miterlimit="2" stroke-width="3" stroke-dasharray="">10</text><text fill="rgb(150,150,150)" stroke="none" font-family="Arial" font-size="14px" font-style="normal" font-weight="normal" text-decoration="normal" x="389.2138671875" y="393.808" text-anchor="middle" fill-opacity="1">10</text></g><g class="dcg-svg-axis-value"><text fill="none" stroke="#ffffff" font-family="Arial" font-size="14px" font-style="normal" font-weight="normal" text-decoration="normal" x="185.26904296875" y="270.4746666666666" text-anchor="middle" stroke-miterlimit="2" stroke-width="3" stroke-dasharray="">0.1</text><text fill="#000000" stroke="none" font-family="Arial" font-size="14px" font-style="normal" font-weight="normal" text-decoration="normal" x="185.26904296875" y="270.4746666666666" text-anchor="middle">0.1</text></g><g class="dcg-svg-axis-value"><text fill="none" stroke="#ffffff" font-family="Arial" font-size="14px" font-style="normal" font-weight="normal" text-decoration="normal" x="185.26904296875" y="137.1413333333333" text-anchor="middle" stroke-miterlimit="2" stroke-width="3" stroke-dasharray="">0.2</text><text fill="#000000" stroke="none" font-family="Arial" font-size="14px" font-style="normal" font-weight="normal" text-decoration="normal" x="185.26904296875" y="137.1413333333333" text-anchor="middle">0.2</text></g></g></g></g><g id="expressions-019118cc"><g id="sketch-019118cc"><title>Expression 1</title><path fill="#c74440" stroke="none" paint-order="stroke fill markers" d="" fill-opacity="0.4"/><g><path fill="none" stroke="#c74440" class="dcg-svg-curve" paint-order="fill stroke markers" d=" M 0 396.2970011539192 L 0 396.2970011539192 L 10.15625 395.2266458193282 L 19.140625 394.0245547413691 L 27.24609375 392.682305392304 L 34.66796875 391.1903984750768 L 41.40625 389.57403592826654 L 47.65625 387.8108130846359 L 53.515625 385.8878854658434 L 58.984375 383.8203809749127 L 64.16015625 381.58534349792353 L 69.04296875 379.19450344885564 L 73.73046875 376.6077514470617 L 78.22265625 373.82749593403236 L 82.6171875 370.78820173573473 L 86.81640625 367.5547794222131 L 90.91796875 364.0513256355122 L 94.921875 360.26669053245087 L 98.92578125 356.0836133973386 L 102.83203125 351.578507669983 L 106.73828125 346.6112514975491 L 110.64453125 341.13443577427734 L 114.35546875 335.4119306295667 L 117.96875 329.30592671557747 L 121.38671875 322.9995736336231 L 124.70703125 316.3351638479122 L 127.9296875 309.3156153187947 L 131.15234375 301.70712089772485 L 134.27734375 293.72005705402046 L 137.40234375 285.0839819144211 L 140.4296875 276.0491423457288 L 143.45703125 266.30397250809847 L 146.38671875 256.14426472045886 L 149.31640625 245.2125095932939 L 152.24609375 233.45003840237194 L 155.17578125 220.79372412274984 L 158.10546875 207.17564263761165 L 160.9375 193.0286267313014 L 163.76953125 177.84368147938844 L 166.6015625 161.54465673589172 L 169.43359375 144.04981541892005 L 172.265625 125.27142361188027 L 175.09765625 105.11531059148848 L 177.9296875 83.48039657619455 L 180 66.66666666666663 L 182.8125 89.29916921349076 L 185.64453125 110.53635542829238 L 188.4765625 130.32192634750413 L 191.40625 149.36774624282378 L 194.3359375 167.06846881312916 L 197.265625 183.51909058908717 L 200.1953125 198.80789903974443 L 203.125 213.01694639517638 L 206.0546875 226.22249000575312 L 208.984375 238.49540160134845 L 212.01171875 250.26755198217015 L 215.0390625 261.1816244756576 L 218.06640625 271.300164805142 L 221.09375 280.68115970512054 L 224.21875 289.64811215894684 L 227.34375 297.94118749403424 L 230.56640625 305.8411891285848 L 233.7890625 313.12968035758115 L 237.109375 320.04942627401806 L 240.52734375 326.59739712059286 L 244.04296875 332.77341552780086 L 247.65625 338.5799247419449 L 251.46484375 344.15824446834745 L 255.37109375 349.35372689909616 L 259.375 354.1778320538268 L 263.37890625 358.5424366546365 L 267.48046875 362.5827708215394 L 271.58203125 366.2293457111723 L 275.78125 369.5948579553541 L 280.078125 372.69172239206966 L 284.5703125 375.59262897630083 L 289.16015625 378.23857114630977 L 293.9453125 380.69218033557314 L 299.0234375 382.9941559468486 L 304.296875 385.09463648968494 L 309.9609375 387.0626360786464 L 315.91796875 388.8527395121155 L 322.36328125 390.51168578251657 L 329.296875 392.02173383487394 L 336.81640625 393.3890138453196 L 345.1171875 394.62793003379426 L 354.296875 395.7295418553499 L 364.6484375 396.7032667536837 L 376.46484375 397.54648449379124 L 390.234375 398.2610462916649 L 400 398.63774285384534" stroke-linecap="round" stroke-linejoin="round" stroke-miterlimit="10" stroke-width="2.5" stroke-dasharray=""/></g></g><g id="sketch-019118cc"><title>Expression 5</title><path fill="#2d70b3" stroke="none" paint-order="stroke fill markers" d="" fill-opacity="0.4"/><g><path fill="none" stroke="#2d70b3" class="dcg-svg-curve" paint-order="fill stroke markers" d=" M 0 397.7540176669715 L 0 397.7540176669715 L 12.890625 396.89997983808337 L 23.92578125 395.9151397321754 L 33.59375 394.79829352347673 L 42.28515625 393.53584760717206 L 50.09765625 392.14158920895164 L 57.2265625 390.6084809545569 L 63.76953125 388.93948818146134 L 69.921875 387.1004830450473 L 75.5859375 385.13824064238537 L 80.95703125 383.00245755471553 L 86.03515625 380.70160568059674 L 90.91796875 378.1960268219126 L 95.5078125 375.5449117460814 L 100 372.63833379203373 L 104.296875 369.5354148813176 L 108.49609375 366.1633229476475 L 112.59765625 362.5096188816132 L 116.6015625 358.56267466416637 L 120.5078125 354.3118802309684 L 124.4140625 349.62502354793025 L 128.3203125 344.4573717330638 L 132.12890625 338.9089333652537 L 135.7421875 333.1335278512394 L 139.2578125 326.990592492288 L 142.67578125 320.47769712982233 L 145.99609375 313.5950181832328 L 149.21875 306.3455691803356 L 152.34375 298.73541547404193 L 155.46875 290.5068773632246 L 158.49609375 281.89839254641066 L 161.5234375 272.6130979989331 L 164.55078125 262.59778210210766 L 167.48046875 252.1564368399926 L 170.41015625 240.9216422977232 L 173.33984375 228.83310339412233 L 176.26953125 215.82594315865325 L 179.1015625 202.31357704835162 L 181.93359375 187.80984417863658 L 184.765625 172.24201057800033 L 187.59765625 155.53200597476047 L 190.4296875 137.59603228675257 L 193.26171875 118.34414338694114 L 196.09375 97.67979403753878 L 198.92578125 75.49935573060844 L 200 66.66666666666663 L 202.83203125 89.45084157112564 L 205.6640625 110.67766059735362 L 208.49609375 130.45357295150507 L 211.42578125 149.49009540014805 L 214.35546875 167.18217714925808 L 217.28515625 183.62476835579983 L 220.21484375 198.90611339022715 L 223.14453125 213.10822442782987 L 226.07421875 226.30732159303278 L 229.00390625 238.57424201882006 L 232.03125 250.34064568245992 L 235.05859375 261.24939033983475 L 238.0859375 271.3629911818266 L 241.11328125 280.7394066360089 L 244.23828125 289.7019817638524 L 247.36328125 297.99100873419957 L 250.5859375 305.88715388767736 L 253.80859375 313.17208715178026 L 257.12890625 320.08845511079517 L 260.546875 326.63322948643196 L 264.0625 332.806232995771 L 267.67578125 338.60990769241505 L 271.484375 344.18550429476795 L 275.390625 349.37845048811005 L 279.39453125 354.20020069773017 L 283.3984375 358.56267466416637 L 287.5 362.60103649321877 L 291.6015625 366.2458312633412 L 295.80078125 369.6097005921325 L 300.09765625 372.7050532571248 L 304.58984375 375.6045437288217 L 309.1796875 378.24919425024996 L 313.96484375 380.70160568059674 L 319.04296875 383.00245755471553 L 324.31640625 385.10191272264285 L 329.98046875 387.06895160887063 L 335.9375 388.85818118175985 L 342.3828125 390.5163176175319 L 349.31640625 392.0256285217212 L 356.8359375 393.39224107794024 L 365.13671875 394.63055247453605 L 374.31640625 395.7316265309954 L 384.66796875 396.7048760937769 L 396.484375 397.54768220697525 L 400 397.7540176669715" stroke-linecap="round" stroke-linejoin="round" stroke-miterlimit="10" stroke-width="2.5" stroke-dasharray=""/></g></g><g id="sketch-019118cc"><title>Expression 6</title><path fill="#388c46" stroke="none" paint-order="stroke fill markers" d="" fill-opacity="0.4"/><g><path fill="none" stroke="#388c46" class="dcg-svg-curve" paint-order="fill stroke markers" d=" M 0 398.63774285384534 L 0 398.63774285384534 L 16.30859375 397.95201202810057 L 29.78515625 397.1315497637284 L 41.30859375 396.1738547506291 L 51.3671875 395.07993039474337 L 60.25390625 393.8559099853252 L 68.26171875 392.49412566176403 L 75.5859375 390.9858872923356 L 82.32421875 389.33200157092415 L 88.57421875 387.5278462528601 L 94.3359375 385.59548890781014 L 99.8046875 383.4851466695381 L 104.98046875 381.2038002383688 L 109.86328125 378.76342307709393 L 114.55078125 376.1230747570459 L 119.04296875 373.28521362152145 L 123.33984375 370.255653388622 L 127.5390625 366.9632838753078 L 131.640625 363.3959600554644 L 135.64453125 359.5423288176794 L 139.6484375 355.28299171411203 L 143.5546875 350.6957552467395 L 147.4609375 345.6379430585347 L 151.26953125 340.2074380230598 L 154.98046875 334.3948165349445 L 158.49609375 328.367754118052 L 161.9140625 321.9777101780534 L 165.234375 315.22485780657615 L 168.45703125 308.112153687873 L 171.6796875 300.4026878466736 L 174.8046875 292.3096286332767 L 177.9296875 283.5589451726439 L 180.95703125 274.4042053278381 L 183.984375 264.5297085059907 L 186.9140625 254.2351724505431 L 189.84375 243.1583433075989 L 192.7734375 231.2397737672989 L 195.703125 218.41549905349675 L 198.53515625 205.0931218477907 L 201.3671875 190.79331686886624 L 204.19921875 175.4443728119685 L 207.03125 158.9693171025376 L 209.86328125 141.2855298906822 L 212.6953125 122.30432972544281 L 215.52734375 101.93052883106498 L 218.359375 80.06195575506348 L 220 66.66666666666663 L 222.8515625 89.60243988806985 L 225.68359375 110.81889678659246 L 228.515625 130.5851552906285 L 231.4453125 149.61238483125558 L 234.375 167.29582997729136 L 237.3046875 183.7303945346362 L 240.234375 199.00427979619025 L 243.1640625 213.19945790201092 L 246.09375 226.39211176875006 L 249.0234375 238.65304394939108 L 252.05078125 250.4137037011784 L 255.078125 261.31712312328807 L 258.10546875 271.42578688905775 L 261.1328125 280.7976251329555 L 264.2578125 289.7558250716607 L 267.3828125 298.0408056535257 L 270.60546875 305.9330962085184 L 273.828125 313.2144732445914 L 277.1484375 320.12746489517485 L 280.56640625 326.66904436026954 L 284.08203125 332.83903444349835 L 287.6953125 338.6398760063463 L 291.50390625 344.2127508139755 L 295.41015625 349.4031620080058 L 299.4140625 354.22255842211024 L 303.41796875 358.5829027942678 L 307.51953125 362.6192932482902 L 311.62109375 366.262308767889 L 315.8203125 369.62453598329887 L 320.1171875 372.7183776145574 L 324.609375 375.61645266501233 L 329.19921875 378.2598121683938 L 333.984375 380.71102642452456 L 339.0625 383.0107551100524 L 344.3359375 385.10918540361985 L 350 387.07526405609264 L 355.95703125 388.86362019498756 L 362.40234375 390.5209471914612 L 369.3359375 392.0295213073301 L 376.85546875 393.3954667351483 L 385.15625 394.6331736351017 L 394.3359375 395.7337101889814 L 400 396.2970011539192" stroke-linecap="round" stroke-linejoin="round" stroke-miterlimit="10" stroke-width="2.5" stroke-dasharray=""/></g></g></g><g id="labels-019118cc"/><g id="labels-019118cc"/></g></svg>